<?xml version="1.0" encoding="utf-8"?>
<!-- Generator: Adobe Illustrator 18.1.1, SVG Export Plug-In . SVG Version: 6.00 Build 0)  -->
<svg version="1.1" id="Layer_1" xmlns="http://www.w3.org/2000/svg" xmlns:xlink="http://www.w3.org/1999/xlink" x="0px" y="0px"
	 viewBox="0 0 612 792" enable-background="new 0 0 612 792" xml:space="preserve">
<g>
	<circle fill="#5B57A6" cx="468" cy="646.6" r="57.1"/>
</g>
<g>
	<circle fill="#5B57A6" cx="583" cy="612.6" r="28.6"/>
</g>
<g>
	<circle fill="#5B57A6" cx="266" cy="596" r="13.9"/>
</g>
<g>
	<g>
		<path fill="#5B57A6" d="M375.7,323c-0.8-0.4-1.5-0.8-2.3-0.8c2.3,6.6,1.9,14.7-1.9,22.4c-3.9,7.7-10,13.1-16.6,15.1
			c0.8,0.8,1.5,1.2,2.3,1.5c7,3.5,17-2.3,22.4-12.7C384.6,338.1,383,326.5,375.7,323z"/>
	</g>
	<g>
		<path fill="#5B57A6" d="M362.2,321.5L229,184.4c1.2,22.8-8.1,52.9-21.2,79.5c-13.1,26.3-31.3,51.7-49.8,64.9l53.3,6.6
			c-1.2,14.3,4.6,27.8,15.8,37.1c3.1,2.3,6.2,4.6,9.7,6.2c13.5,6.6,29.3,7.3,42.9,1.9c13.9-5.8,22.8-17.8,25.5-33.6l42.5,4.6l0,0
			c5.4,1.2,12-3.5,15.8-10.8C366.8,333.1,366.4,325,362.2,321.5z M273.8,366.3c-11.6,5-27,2.3-37.1-5.8
			c-4.2-3.5-11.2-11.2-10.4-23.6l64.1,7.7C288,355.1,282.6,362.8,273.8,366.3z"/>
	</g>
	<g>
		
			<ellipse transform="matrix(-0.8966 -0.4429 0.4429 -0.8966 209.9349 537.1254)" fill="#5B57A6" cx="167.7" cy="244.1" rx="32.8" ry="89.6"/>
	</g>
</g>
<g>
	<path fill="#5B57A6" d="M246.3,367c-16.6,30.1-10,81.9,37.1,103.1"/>
	<path fill="#5B57A6" d="M257.9,372.4c0,0-0.8,1.9-1.9,5c0,0.4-0.4,0.8-0.4,1.2c0,0.4,0,0.8-0.4,1.2c0,0.8-0.4,1.5-0.4,2.3
		c0,0.4-0.4,0.8-0.4,1.2c0,0.4,0,1.2-0.4,1.5c0,1.2-0.4,2.3-0.8,3.5c-0.4,2.3-0.4,5-0.8,7.7c0,1.2,0,2.7,0,4.2s0.4,2.7,0.4,4.2
		l0.4,2.3l0.4,2.3c0.4,1.5,0.4,3.1,0.8,4.2c0.4,1.5,0.8,3.1,1.2,4.2c0.4,1.5,1.2,2.7,1.5,4.2s1.2,2.7,1.9,4.2
		c0.8,1.2,1.2,2.7,2.3,3.9c0.8,1.2,1.5,2.3,2.3,3.5c0.8,1.2,1.9,2.3,2.7,3.1c1.5,2.3,3.9,3.9,5.4,5.4c1.9,1.5,3.9,3.1,5.8,4.2
		s3.9,1.9,5.4,3.1c1.5,1.2,3.1,1.5,4.2,1.9c2.3,1.2,3.9,1.5,3.9,1.5l-15.8,35.1c0,0-1.9-1.2-5.8-3.1c-1.9-1.2-3.9-1.9-6.2-3.9
		c-2.3-1.5-5-3.5-7.7-5.8s-5.8-5-8.5-8.1c-2.7-3.1-5.8-6.2-8.1-10c-1.2-1.9-2.7-3.5-3.9-5.8c-1.2-1.9-2.3-4.2-3.1-6.2
		c-1.2-1.9-1.9-4.2-2.7-6.6c-0.8-2.3-1.5-4.2-2.3-6.6c-0.8-2.3-1.5-4.6-1.9-6.6c-0.4-2.3-0.8-4.6-1.2-7c0-1.9,0-4.2-0.4-6.6
		c0-1.2,0-2.3-0.4-3.5c0-1.2,0-2.3,0-3.1c0-2.3,0-4.2,0-6.2c0.4-1.9,0.4-3.9,0.8-6.2c0.4-3.9,1.2-7.3,1.9-10.8
		c0.4-1.5,0.8-3.1,1.5-4.6c0.4-0.8,0.4-1.5,0.8-2.3c0.4-0.8,0.8-1.5,0.8-2.3c0.8-1.5,1.2-2.7,1.5-3.9c0.4-0.8,0.4-1.2,0.8-1.9
		c0.4-0.4,0.4-0.8,0.8-1.2c1.5-3.1,2.7-4.6,2.7-4.6L257.9,372.4z"/>
</g>
<g>
	<path fill="#5B57A6" d="M270.3,379c2.3,13.1-17,17.4-23.9,9.7c-5-5.4-5-11.2-3.5-11.6C244.8,376.7,270.3,379,270.3,379z"/>
</g>
<g>
	<polygon fill="#5B57A6" points="26.3,126.9 135.5,189.4 140.2,181.7 36.7,111.8 	"/>
</g>
<g>
	<polygon fill="#5B57A6" points="31.7,184 100.4,211.4 102.3,206.4 36.3,174.4 	"/>
</g>
<g>
	<polygon fill="#5B57A6" points="0,234.2 103.1,257 105,249.7 4.6,219.5 	"/>
</g>
<g>
	<g>
		<path fill="#5B57A6" d="M403.1,495.6c4.6,1.9,10.8-2.3,13.5-9.3c2.7-7,1.2-13.9-3.9-15.8c-4.6-1.9-10.8,2.3-13.5,9.3
			C396.9,486.7,398.5,493.7,403.1,495.6z"/>
	</g>
	<g>
		<path fill="#5B57A6" d="M591.1,504.1c-15.1-38.6-54.8-60.2-94.2-53.3c-23.9-33.6-62.9-55.2-107-55.2
			c-72.6,0-131.3,58.7-131.3,131.3S317.4,658.2,390,658.2c37.8,0,71.8-16.2,95.8-41.7c17.8,5.8,37.8,5.8,56.8-1.5
			C586.1,597.6,608.1,548.1,591.1,504.1z M322,475.9c1.9-9.3,7-17.4,14.3-22.4l-18.1,1.5v-16.2l110.4-1.5l0.8,8.1l-53.7,4.6
			c5.8,3.1,10.4,7.3,13.9,12.4c6.2-5.4,14.7-7.7,23.2-6.2c14.7,3.1,24.3,17.4,21.2,32c-3.1,14.7-17.4,24.3-32,21.2
			c-4.6-0.8-8.9-3.1-12.4-5.8c-8.1,12.4-23.2,19.3-38.6,16.2C330.9,516.1,317.8,496.4,322,475.9z M342.1,542.7
			c10,6.2,27.8,7.3,46.3,3.9l0,0l4.6,13.9l14.3-3.5l0.8-13.5l7.7,10.4l10.4-3.5l-4.6-13.9c10-4.6,18.5-10.4,25.1-17
			C464.5,564.3,422,627.3,342.1,542.7z"/>
	</g>
	<g>
		<path fill="#5B57A6" d="M371.4,487.9c3.5-9.7,1.5-19.3-5-21.6c-6.6-2.3-14.7,3.1-18.5,12.7c-3.5,9.7-1.5,19.3,5,21.6
			C359.5,503.3,367.6,497.5,371.4,487.9z"/>
	</g>
</g>
</svg>
